<svg width="31" height="31" viewBox="0 0 31 31" fill="none" xmlns="http://www.w3.org/2000/svg">
<path d="M15.5 14.9758C13.3687 14.9758 11.625 14.277 10.2688 12.8792C8.9125 11.4815 8.23438 9.68438 8.23438 7.48792C8.23438 5.29147 8.9125 3.49436 10.2688 2.09662C11.625 0.698873 13.3687 0 15.5 0C17.6313 0 19.375 0.698873 20.7312 2.09662C22.0875 3.49436 22.7656 5.29147 22.7656 7.48792C22.7656 9.68438 22.0875 11.4815 20.7312 12.8792C19.375 14.277 17.6313 14.9758 15.5 14.9758ZM0 31V26.3076C0 25.0429 0.306771 23.9614 0.920312 23.0628C1.53385 22.1642 2.325 21.482 3.29375 21.0161C5.45729 20.0177 7.53203 19.2689 9.51797 18.7697C11.5039 18.2705 13.4979 18.0209 15.5 18.0209C17.5021 18.0209 19.488 18.2789 21.4578 18.7947C23.4276 19.3105 25.4943 20.051 27.6578 21.0161C28.6589 21.482 29.4661 22.1642 30.0797 23.0628C30.6932 23.9614 31 25.0429 31 26.3076V31H0ZM2.90625 28.0048H28.0938V26.3076C28.0938 25.7751 27.9404 25.2676 27.6336 24.785C27.3268 24.3025 26.9474 23.9447 26.4953 23.7118C24.4286 22.6801 22.5396 21.9729 20.8281 21.5902C19.1167 21.2075 17.3406 21.0161 15.5 21.0161C13.6594 21.0161 11.8672 21.2075 10.1234 21.5902C8.37969 21.9729 6.49063 22.6801 4.45625 23.7118C4.00417 23.9447 3.63281 24.3025 3.34219 24.785C3.05156 25.2676 2.90625 25.7751 2.90625 26.3076V28.0048ZM15.5 11.9807C16.7594 11.9807 17.8008 11.5564 18.6242 10.7077C19.4477 9.8591 19.8594 8.78583 19.8594 7.48792C19.8594 6.19002 19.4477 5.11675 18.6242 4.26812C17.8008 3.41949 16.7594 2.99517 15.5 2.99517C14.2406 2.99517 13.1992 3.41949 12.3758 4.26812C11.5523 5.11675 11.1406 6.19002 11.1406 7.48792C11.1406 8.78583 11.5523 9.8591 12.3758 10.7077C13.1992 11.5564 14.2406 11.9807 15.5 11.9807Z" fill="black"/>
</svg>
